<svg xmlns="http://www.w3.org/2000/svg" width="288" height="95" viewBox="0 0 288 95" version="1.1"><path d="M 9.041 3.674 C 6.969 6.310, 6.942 6.961, 7.219 48.263 L 7.500 90.178 9.861 92.089 C 12.102 93.903, 14.333 93.998, 53.861 93.968 C 85.016 93.944, 95.900 93.630, 97.087 92.718 C 100.182 90.342, 101 87.093, 101 77.174 L 101 67.217 103.750 66.531 C 107.530 65.587, 112.697 61.486, 114.501 57.998 C 116.450 54.228, 116.411 47.919, 114.413 43.784 C 112.457 39.737, 106.485 35, 103.339 35 L 101 35 101 20.646 C 101 6.796, 100.914 6.199, 98.548 3.646 L 96.095 1 53.620 1 L 11.145 1 9.041 3.674 M 10.557 5.223 C 9.210 7.145, 9 12.887, 9 47.723 C 9 86.667, 9.066 88.066, 11 90 C 12.100 91.100, 13.849 92, 14.887 92 C 16.586 92, 16.814 90.982, 17.187 81.750 C 17.639 70.587, 18.635 67.728, 24.666 60.281 C 26.889 57.537, 30.357 54.977, 34.591 52.957 C 41.035 49.881, 41.233 49.854, 54.800 50.175 C 66.727 50.458, 69.112 50.801, 73.229 52.829 C 84.908 58.581, 91 69.474, 91 84.605 C 91 91.333, 91.180 92, 93 92 C 94.100 92, 95.900 91.100, 97 90 C 98.746 88.254, 99 86.667, 99 77.500 C 99 68.684, 98.751 67, 97.450 67 C 95.015 67, 89.974 64.073, 87.389 61.159 C 79.935 52.755, 83.685 39.247, 94.500 35.548 L 98.500 34.180 98.500 20.241 C 98.500 9.895, 98.146 5.876, 97.128 4.651 C 95.902 3.177, 92.180 3, 62.378 3 L 29 3 29 15 C 29 21.600, 28.692 27, 28.314 27 C 27.937 27, 26.584 26.018, 25.306 24.818 L 22.984 22.636 20.032 24.818 C 18.409 26.018, 16.838 27, 16.540 27 C 16.243 27, 16 21.600, 16 15 C 16 3.783, 15.873 3, 14.057 3 C 12.988 3, 11.413 4, 10.557 5.223 M 18 13.155 C 18 23.203, 18.021 23.291, 19.974 21.523 C 21.823 19.850, 22.109 19.842, 24.474 21.391 L 27 23.046 27 13.023 L 27 3 22.500 3 L 18 3 18 13.155 M 49.500 4.914 C 44.050 6.280, 40.028 9.001, 37.246 13.205 C 34.846 16.831, 34.500 18.328, 34.500 25.084 C 34.500 32.240, 34.731 33.100, 37.606 36.657 C 41.677 41.693, 45.669 43.937, 51.870 44.671 C 67.147 46.480, 78.692 30.350, 72.033 16.500 C 69.557 11.350, 68.272 9.880, 64 7.314 C 59.921 4.864, 53.766 3.845, 49.500 4.914 M 44.826 9.255 C 38.233 13.283, 36.500 16.484, 36.500 24.633 C 36.500 31.174, 36.777 32.157, 39.605 35.657 C 44.933 42.252, 55.395 44.551, 62.397 40.667 C 66 38.668, 69.994 33.753, 71.149 29.896 C 73.598 21.723, 68.973 11.558, 61.357 8.376 C 56.288 6.258, 49.106 6.640, 44.826 9.255 M 227.536 26.250 C 227.259 27.488, 226.913 30.300, 226.767 32.500 C 226.567 35.500, 226.125 36.395, 225 36.081 C 219.507 34.545, 216.264 34.907, 213.318 37.385 C 204.877 44.488, 207.809 62.748, 217.688 64.601 C 220.352 65.101, 222.229 64.831, 224.280 63.654 C 226.366 62.457, 227.654 62.280, 229.008 63.004 C 231.580 64.381, 233.607 64.250, 235.256 62.601 C 236.365 61.493, 236.615 57.503, 236.466 43.351 C 236.363 33.533, 236.215 25.163, 236.139 24.750 C 236.063 24.337, 234.209 24, 232.019 24 C 228.706 24, 227.954 24.378, 227.536 26.250 M 132.212 28.716 C 127.123 32.016, 124.770 36.598, 124.186 44.344 C 123.664 51.279, 126.364 58.026, 131.222 61.928 C 136.852 66.449, 150.467 65.670, 153.203 60.670 C 154.684 57.964, 154.280 45.799, 152.674 44.778 C 150.955 43.684, 147.218 43.838, 146.479 45.033 C 146.128 45.601, 145.640 47.689, 145.394 49.672 C 144.797 54.483, 144.372 55, 141.014 55 C 133.630 55, 131.404 42.280, 137.913 37.282 C 139.878 35.774, 144.970 35.658, 148.602 37.039 C 151.775 38.245, 152.960 37.105, 152.985 32.823 C 153.024 25.907, 140.395 23.410, 132.212 28.716 M 184.500 35.216 C 179.870 37.889, 176.986 43.482, 177.022 49.718 C 177.047 54.028, 179.824 60.789, 182.468 62.977 C 184.984 65.060, 191.399 64.854, 193.876 62.612 C 195.751 60.916, 196.041 60.898, 197.528 62.385 C 199.434 64.291, 199.187 64.260, 202.465 63.013 L 205.060 62.027 204.780 49.263 L 204.500 36.500 201.123 36.177 C 199.265 36, 197.301 36.299, 196.758 36.842 C 196.107 37.493, 194.699 37.178, 192.635 35.919 C 189.049 33.732, 187.327 33.583, 184.500 35.216 M 159.750 36.080 C 158.234 36.963, 158 38.738, 158 49.350 C 158 62.615, 158.488 64, 163.165 64 C 166.732 64, 168 61.583, 168 54.788 C 168 49.235, 169.956 45, 172.522 45 C 175.588 45, 177.148 38.198, 174.572 36.060 C 173.457 35.135, 172.464 35.226, 170.046 36.476 C 167.252 37.921, 166.734 37.927, 164.752 36.539 C 162.195 34.748, 162.059 34.735, 159.750 36.080 M 240.750 36.080 C 238.627 37.317, 238.578 38.272, 240.434 42.349 C 241.223 44.082, 243.075 48.968, 244.549 53.207 C 247.190 60.802, 247.243 61.854, 245.434 70.750 C 244.779 73.971, 244.808 74, 248.646 74 C 253.476 74, 254.016 73.189, 259.114 58.289 C 261.258 52.024, 263.905 45.147, 264.997 43.007 C 267.260 38.569, 266.796 36.238, 263.483 35.406 C 259.666 34.448, 257.267 36.569, 255.572 42.401 C 254.707 45.375, 254 48.391, 254 49.104 C 254 51.747, 252.189 48.385, 250.590 42.774 C 248.568 35.679, 245.280 33.442, 240.750 36.080 M 92.299 38.960 C 88.165 41.480, 86 45.761, 86 51.416 C 86 62.633, 100.193 68.758, 109.005 61.343 C 114.080 57.072, 115.268 48.076, 111.472 42.657 C 107.501 36.988, 98.408 35.234, 92.299 38.960 M 98 43.500 C 96.979 46.593, 96.447 47, 93.422 47 C 89.343 47, 89.061 48.155, 92.578 50.459 C 93.997 51.389, 94.958 52.678, 94.716 53.324 C 92.466 59.318, 93.380 60.776, 97.212 57.308 C 98.967 55.719, 99.255 55.719, 101.945 57.308 C 105.903 59.647, 106.184 59.495, 105.421 55.431 C 104.867 52.479, 105.119 51.605, 106.876 50.374 C 109.867 48.279, 109.515 47, 105.949 47 C 103.407 47, 102.654 46.416, 101.436 43.500 C 100.631 41.575, 99.789 40, 99.564 40 C 99.339 40, 98.635 41.575, 98 43.500 M 188.200 45.200 C 187.540 45.860, 187 47.830, 187 49.578 C 187 55.459, 192.326 56.893, 194.822 51.684 C 195.973 49.285, 195.935 48.550, 194.557 46.447 C 192.827 43.807, 190.123 43.277, 188.200 45.200 M 219.200 46.200 C 216.412 48.988, 218.705 55, 222.557 55 C 225.894 55, 227.801 51.054, 226.182 47.500 C 224.945 44.786, 221.294 44.106, 219.200 46.200 M 98.692 47.360 C 98.346 48.262, 97.416 49, 96.625 49 C 95.468 49, 95.405 49.459, 96.299 51.354 C 97.562 54.030, 103.345 55.063, 102.335 52.431 C 102.033 51.644, 102.284 51, 102.893 51 C 103.502 51, 104 50.550, 104 50 C 104 49.450, 103.487 49, 102.860 49 C 102.233 49, 101.181 48.262, 100.521 47.360 C 99.409 45.839, 99.276 45.839, 98.692 47.360 M 35.200 55.058 C 24.183 60.563, 19.915 67.821, 19.209 82.250 L 18.733 92 54.003 92 L 89.273 92 88.785 82.750 C 88.221 72.059, 85.460 65.316, 79.247 59.455 C 73.275 53.823, 66.887 52, 53.122 52 C 41.959 52, 40.988 52.166, 35.200 55.058" stroke="none" fill="#189dd3" fill-rule="evenodd"/><path d="M 0 47.503 L 0 95.007 144.250 94.753 L 288.500 94.500 288.760 47.250 L 289.020 0 144.510 0 L 0 0 0 47.503 M 0.462 48 C 0.462 74.125, 0.591 84.813, 0.749 71.750 C 0.907 58.688, 0.907 37.313, 0.749 24.250 C 0.591 11.188, 0.462 21.875, 0.462 48 M 9.041 3.674 C 6.969 6.310, 6.942 6.961, 7.219 48.263 L 7.500 90.178 9.861 92.089 C 12.102 93.903, 14.333 93.998, 53.861 93.968 C 85.016 93.944, 95.900 93.630, 97.087 92.718 C 100.182 90.342, 101 87.093, 101 77.174 L 101 67.217 103.750 66.531 C 107.530 65.587, 112.697 61.486, 114.501 57.998 C 116.450 54.228, 116.411 47.919, 114.413 43.784 C 112.457 39.737, 106.485 35, 103.339 35 L 101 35 101 20.646 C 101 6.796, 100.914 6.199, 98.548 3.646 L 96.095 1 53.620 1 L 11.145 1 9.041 3.674 M 10.557 5.223 C 9.210 7.145, 9 12.887, 9 47.723 C 9 86.667, 9.066 88.066, 11 90 C 12.100 91.100, 13.849 92, 14.887 92 C 16.586 92, 16.814 90.982, 17.187 81.750 C 17.639 70.587, 18.635 67.728, 24.666 60.281 C 26.889 57.537, 30.357 54.977, 34.591 52.957 C 41.035 49.881, 41.233 49.854, 54.800 50.175 C 66.727 50.458, 69.112 50.801, 73.229 52.829 C 84.908 58.581, 91 69.474, 91 84.605 C 91 91.333, 91.180 92, 93 92 C 94.100 92, 95.900 91.100, 97 90 C 98.746 88.254, 99 86.667, 99 77.500 C 99 68.684, 98.751 67, 97.450 67 C 95.015 67, 89.974 64.073, 87.389 61.159 C 79.935 52.755, 83.685 39.247, 94.500 35.548 L 98.500 34.180 98.500 20.241 C 98.500 9.895, 98.146 5.876, 97.128 4.651 C 95.902 3.177, 92.180 3, 62.378 3 L 29 3 29 15 C 29 21.600, 28.692 27, 28.314 27 C 27.937 27, 26.584 26.018, 25.306 24.818 L 22.984 22.636 20.032 24.818 C 18.409 26.018, 16.838 27, 16.540 27 C 16.243 27, 16 21.600, 16 15 C 16 3.783, 15.873 3, 14.057 3 C 12.988 3, 11.413 4, 10.557 5.223 M 18 13.155 C 18 23.203, 18.021 23.291, 19.974 21.523 C 21.823 19.850, 22.109 19.842, 24.474 21.391 L 27 23.046 27 13.023 L 27 3 22.500 3 L 18 3 18 13.155 M 49.500 4.914 C 44.050 6.280, 40.028 9.001, 37.246 13.205 C 34.846 16.831, 34.500 18.328, 34.500 25.084 C 34.500 32.240, 34.731 33.100, 37.606 36.657 C 41.677 41.693, 45.669 43.937, 51.870 44.671 C 67.147 46.480, 78.692 30.350, 72.033 16.500 C 69.557 11.350, 68.272 9.880, 64 7.314 C 59.921 4.864, 53.766 3.845, 49.500 4.914 M 44.826 9.255 C 38.233 13.283, 36.500 16.484, 36.500 24.633 C 36.500 31.174, 36.777 32.157, 39.605 35.657 C 44.933 42.252, 55.395 44.551, 62.397 40.667 C 66 38.668, 69.994 33.753, 71.149 29.896 C 73.598 21.723, 68.973 11.558, 61.357 8.376 C 56.288 6.258, 49.106 6.640, 44.826 9.255 M 227.536 26.250 C 227.259 27.488, 226.913 30.300, 226.767 32.500 C 226.567 35.500, 226.125 36.395, 225 36.081 C 219.507 34.545, 216.264 34.907, 213.318 37.385 C 204.877 44.488, 207.809 62.748, 217.688 64.601 C 220.352 65.101, 222.229 64.831, 224.280 63.654 C 226.366 62.457, 227.654 62.280, 229.008 63.004 C 231.580 64.381, 233.607 64.250, 235.256 62.601 C 236.365 61.493, 236.615 57.503, 236.466 43.351 C 236.363 33.533, 236.215 25.163, 236.139 24.750 C 236.063 24.337, 234.209 24, 232.019 24 C 228.706 24, 227.954 24.378, 227.536 26.250 M 132.212 28.716 C 127.123 32.016, 124.770 36.598, 124.186 44.344 C 123.664 51.279, 126.364 58.026, 131.222 61.928 C 136.852 66.449, 150.467 65.670, 153.203 60.670 C 154.684 57.964, 154.280 45.799, 152.674 44.778 C 150.955 43.684, 147.218 43.838, 146.479 45.033 C 146.128 45.601, 145.640 47.689, 145.394 49.672 C 144.797 54.483, 144.372 55, 141.014 55 C 133.630 55, 131.404 42.280, 137.913 37.282 C 139.878 35.774, 144.970 35.658, 148.602 37.039 C 151.775 38.245, 152.960 37.105, 152.985 32.823 C 153.024 25.907, 140.395 23.410, 132.212 28.716 M 184.500 35.216 C 179.870 37.889, 176.986 43.482, 177.022 49.718 C 177.047 54.028, 179.824 60.789, 182.468 62.977 C 184.984 65.060, 191.399 64.854, 193.876 62.612 C 195.751 60.916, 196.041 60.898, 197.528 62.385 C 199.434 64.291, 199.187 64.260, 202.465 63.013 L 205.060 62.027 204.780 49.263 L 204.500 36.500 201.123 36.177 C 199.265 36, 197.301 36.299, 196.758 36.842 C 196.107 37.493, 194.699 37.178, 192.635 35.919 C 189.049 33.732, 187.327 33.583, 184.500 35.216 M 159.750 36.080 C 158.234 36.963, 158 38.738, 158 49.350 C 158 62.615, 158.488 64, 163.165 64 C 166.732 64, 168 61.583, 168 54.788 C 168 49.235, 169.956 45, 172.522 45 C 175.588 45, 177.148 38.198, 174.572 36.060 C 173.457 35.135, 172.464 35.226, 170.046 36.476 C 167.252 37.921, 166.734 37.927, 164.752 36.539 C 162.195 34.748, 162.059 34.735, 159.750 36.080 M 240.750 36.080 C 238.627 37.317, 238.578 38.272, 240.434 42.349 C 241.223 44.082, 243.075 48.968, 244.549 53.207 C 247.190 60.802, 247.243 61.854, 245.434 70.750 C 244.779 73.971, 244.808 74, 248.646 74 C 253.476 74, 254.016 73.189, 259.114 58.289 C 261.258 52.024, 263.905 45.147, 264.997 43.007 C 267.260 38.569, 266.796 36.238, 263.483 35.406 C 259.666 34.448, 257.267 36.569, 255.572 42.401 C 254.707 45.375, 254 48.391, 254 49.104 C 254 51.747, 252.189 48.385, 250.590 42.774 C 248.568 35.679, 245.280 33.442, 240.750 36.080 M 92.299 38.960 C 88.165 41.480, 86 45.761, 86 51.416 C 86 62.633, 100.193 68.758, 109.005 61.343 C 114.080 57.072, 115.268 48.076, 111.472 42.657 C 107.501 36.988, 98.408 35.234, 92.299 38.960 M 98 43.500 C 96.979 46.593, 96.447 47, 93.422 47 C 89.343 47, 89.061 48.155, 92.578 50.459 C 93.997 51.389, 94.958 52.678, 94.716 53.324 C 92.466 59.318, 93.380 60.776, 97.212 57.308 C 98.967 55.719, 99.255 55.719, 101.945 57.308 C 105.903 59.647, 106.184 59.495, 105.421 55.431 C 104.867 52.479, 105.119 51.605, 106.876 50.374 C 109.867 48.279, 109.515 47, 105.949 47 C 103.407 47, 102.654 46.416, 101.436 43.500 C 100.631 41.575, 99.789 40, 99.564 40 C 99.339 40, 98.635 41.575, 98 43.500 M 188.200 45.200 C 187.540 45.860, 187 47.830, 187 49.578 C 187 55.459, 192.326 56.893, 194.822 51.684 C 195.973 49.285, 195.935 48.550, 194.557 46.447 C 192.827 43.807, 190.123 43.277, 188.200 45.200 M 219.200 46.200 C 216.412 48.988, 218.705 55, 222.557 55 C 225.894 55, 227.801 51.054, 226.182 47.500 C 224.945 44.786, 221.294 44.106, 219.200 46.200 M 98.692 47.360 C 98.346 48.262, 97.416 49, 96.625 49 C 95.468 49, 95.405 49.459, 96.299 51.354 C 97.562 54.030, 103.345 55.063, 102.335 52.431 C 102.033 51.644, 102.284 51, 102.893 51 C 103.502 51, 104 50.550, 104 50 C 104 49.450, 103.487 49, 102.860 49 C 102.233 49, 101.181 48.262, 100.521 47.360 C 99.409 45.839, 99.276 45.839, 98.692 47.360 M 35.200 55.058 C 24.183 60.563, 19.915 67.821, 19.209 82.250 L 18.733 92 54.003 92 L 89.273 92 88.785 82.750 C 88.221 72.059, 85.460 65.316, 79.247 59.455 C 73.275 53.823, 66.887 52, 53.122 52 C 41.959 52, 40.988 52.166, 35.200 55.058" stroke="none" fill="#f7fbf2" fill-rule="evenodd"/></svg>